<?xml version="1.0" standalone="no"?>
<!DOCTYPE svg PUBLIC "-//W3C//DTD SVG 20010904//EN"
 "http://www.w3.org/TR/2001/REC-SVG-20010904/DTD/svg10.dtd">
<svg version="1.0" xmlns="http://www.w3.org/2000/svg"
 width="626.000000pt" height="626.000000pt" viewBox="0 0 626.000000 626.000000"
 preserveAspectRatio="xMidYMid meet">
<metadata>
Created by potrace 1.13, written by Peter Selinger 2001-2015
</metadata>
<g transform="translate(0.000000,626.000000) scale(0.100000,-0.100000)"
fill="#000000" stroke="none">
<path d="M352 6244 c-175 -47 -307 -181 -341 -347 -8 -37 -10 -863 -9 -2797
l3 -2745 23 -57 c50 -125 147 -219 272 -265 l75 -28 2755 0 2755 0 75 28 c125
46 222 140 272 265 l23 57 0 2775 0 2775 -23 57 c-50 123 -143 215 -268 265
l-69 28 -2745 2 c-2352 2 -2753 0 -2798 -13z m1279 -1069 c239 -80 373 -327
311 -572 -25 -98 -68 -170 -142 -236 -102 -92 -213 -131 -375 -131 -157 0
-261 35 -361 120 -220 187 -220 541 0 729 60 51 136 87 216 104 30 6 64 13 75
15 48 12 207 -5 276 -29z m2766 -1275 c402 -51 708 -314 832 -715 75 -244 81
-336 81 -1332 l0 -833 -475 0 -475 0 0 798 c0 833 -4 918 -45 1037 -60 174
-161 269 -323 304 -216 46 -444 -57 -551 -249 -71 -128 -65 -52 -71 -1015 l-5
-870 -472 -3 -473 -2 0 1415 0 1415 473 -2 472 -3 5 -195 5 -195 38 56 c53 80
200 218 284 267 94 55 219 101 318 117 100 16 274 18 382 5z m-2499 -1467 l2
-1413 -475 0 -475 0 0 1408 c0 775 3 1412 7 1415 3 4 216 6 472 5 l466 -3 3
-1412z"/>
</g>
</svg>
